<svg width="176" height="28" viewBox="0 0 176 28" fill="none" xmlns="http://www.w3.org/2000/svg">
	<path d="M22.2797 27.9769C24.5954 27.8349 26.8369 27.0782 28.7886 25.7795C30.7403 24.4809 32.3364 22.684 33.4236 20.5618C34.5107 18.4395 35.0522 16.0633 34.996 13.6616C34.9399 11.26 34.2879 8.9137 33.1028 6.84846C31.9177 4.78322 30.2394 3.06851 28.2293 1.86926C26.2192 0.670003 23.9449 0.0265566 21.6252 0.0008046C19.3055 -0.0249474 17.0184 0.567862 14.984 1.72221C12.9495 2.87657 11.2361 4.55362 10.0085 6.59208C7.36431 6.67955 4.85308 7.81342 2.99174 9.76031C1.13039 11.7072 0.0605798 14.319 0.0024965 17.058C-0.0555868 19.797 0.90248 22.4549 2.6795 24.4845C4.45652 26.5142 6.91726 27.7611 9.55522 27.9687V28H22.2797V27.9769Z" fill="url(#paint0_linear_3276_3003)" />
	<path d="M18.5658 14.4795L17.5988 15.492C16.8061 16.3227 15.8014 16.9209 14.6932 17.222C13.5851 17.5231 12.4158 17.5155 11.3117 17.2002C11.4377 17.3413 11.5693 17.4774 11.7063 17.608C14.5022 20.2781 18.933 20.1762 21.6031 17.3803L24.1343 19.7976L24.919 10.8676L16.0346 12.0622L18.5658 14.4795Z" fill="white" />
	<path d="M49.2467 4.06C45.8587 4.06 43.1147 6.104 43.1147 9.268C43.1147 12.012 45.1867 13.44 47.9867 14.532L49.4987 15.12C51.6547 15.96 52.9707 16.66 52.9707 18.424C52.9707 20.608 50.8987 21.336 49.1627 21.336C47.6507 21.336 46.1667 20.692 45.2147 19.236C44.9067 18.76 44.4307 18.34 43.7587 18.34C42.9187 18.34 42.4987 18.984 42.4987 19.656C42.4987 20.272 42.8627 20.776 43.0867 21.084C44.3467 23.016 46.7827 24.052 49.1627 24.052C52.4107 24.052 56.0787 22.148 56.0787 18.424C56.0787 15.596 54.0627 14.168 50.1147 12.656L48.7427 12.124C46.9227 11.424 46.1387 10.528 46.1387 9.296C46.1387 7.756 47.3707 6.748 49.3587 6.748C50.9547 6.748 51.8227 7.448 52.6067 8.484C52.9147 8.848 53.3627 9.128 53.8947 9.128C54.6227 9.128 55.1547 8.596 55.1547 7.924C55.1547 7.476 54.9307 7.056 54.5107 6.524C53.4467 5.18 51.8227 4.06 49.2467 4.06Z" fill="white" />
	<path d="M65.6947 9.128C62.4747 9.128 58.3307 11.62 58.3307 16.604C58.3307 21.616 62.4747 24.052 65.6947 24.052C68.9147 24.052 73.0867 21.616 73.0867 16.604C73.0867 11.62 68.9147 9.128 65.6947 9.128ZM65.6947 11.704C67.8787 11.704 70.1467 13.412 70.1467 16.604C70.1467 19.768 67.8787 21.476 65.6947 21.476C63.5387 21.476 61.2707 19.768 61.2707 16.604C61.2707 13.412 63.5387 11.704 65.6947 11.704Z" fill="white" />
	<path d="M92.1171 21.308C91.8091 21.336 91.3891 21.448 91.0251 21.448C90.3811 21.448 90.0451 21.056 90.0451 20.216V11.676H92.0891C92.8171 11.676 93.3211 11.2 93.3211 10.472C93.3211 9.772 92.8171 9.296 92.0891 9.296H90.0451V7.112C90.0451 6.328 89.3731 5.656 88.5611 5.656C87.7771 5.656 87.1051 6.328 87.1051 7.112V9.296H79.5731V8.344C79.5731 7.196 80.0771 6.02 81.6451 6.02C82.2051 6.02 82.5691 6.188 82.9611 6.356C83.4091 6.524 83.7731 6.636 84.0251 6.636C84.6411 6.636 85.1171 6.188 85.1171 5.544C85.1171 5.04 84.8371 4.676 84.3611 4.368C83.6051 3.836 82.5411 3.5 81.2811 3.5C79.4611 3.5 76.6331 4.396 76.6331 8.232V9.296H75.7091C74.9811 9.296 74.5051 9.772 74.5051 10.472C74.5051 11.2 74.9811 11.676 75.7091 11.676H76.6331V22.54C76.6331 23.352 77.3051 24.024 78.1171 24.024C78.9011 24.024 79.5731 23.352 79.5731 22.54V11.676H87.1051V20.188C87.1051 23.408 88.7571 23.996 90.4371 23.996C92.0051 23.996 93.3211 23.492 93.3211 22.344C93.3211 21.644 92.8171 21.196 92.1171 21.308Z" fill="white" />
	<path d="M110.169 19.516C109.581 19.516 109.189 19.796 108.825 20.076C108.209 20.552 106.977 21.168 105.409 21.168C101.909 21.168 98.6888 18.144 98.6888 14.056C98.6888 9.968 101.909 6.944 105.409 6.944C106.977 6.944 108.209 7.56 108.825 8.036C109.189 8.316 109.581 8.596 110.169 8.596C110.897 8.596 111.569 8.092 111.569 7.224C111.569 6.524 111.093 6.02 110.253 5.46C108.993 4.592 107.369 4.06 105.381 4.06C100.453 4.06 95.5248 8.148 95.5248 14.056C95.5248 19.964 100.453 24.052 105.381 24.052C107.369 24.052 108.993 23.52 110.253 22.652C111.093 22.092 111.569 21.588 111.569 20.888C111.569 20.02 110.897 19.516 110.169 19.516Z" fill="white" />
	<path d="M120.519 9.128C117.299 9.128 113.155 11.62 113.155 16.604C113.155 21.616 117.299 24.052 120.519 24.052C123.739 24.052 127.911 21.616 127.911 16.604C127.911 11.62 123.739 9.128 120.519 9.128ZM120.519 11.704C122.703 11.704 124.971 13.412 124.971 16.604C124.971 19.768 122.703 21.476 120.519 21.476C118.363 21.476 116.095 19.768 116.095 16.604C116.095 13.412 118.363 11.704 120.519 11.704Z" fill="white" />
	<path d="M133.691 22.512V5.348C133.691 4.536 133.019 3.864 132.207 3.864C131.395 3.864 130.723 4.536 130.723 5.348V22.512C130.723 23.324 131.395 23.996 132.207 23.996C133.019 23.996 133.691 23.324 133.691 22.512Z" fill="white" />
	<path d="M140.007 22.512V5.348C140.007 4.536 139.335 3.864 138.523 3.864C137.711 3.864 137.039 4.536 137.039 5.348V22.512C137.039 23.324 137.711 23.996 138.523 23.996C139.335 23.996 140.007 23.324 140.007 22.512Z" fill="white" />
	<path d="M149.628 9.128C146.548 9.128 142.796 11.592 142.796 16.576C142.796 21.644 146.52 24.052 149.628 24.052C152.288 24.052 154.024 22.288 154.22 21.028V22.54C154.22 23.352 154.892 24.024 155.704 24.024C156.516 24.024 157.216 23.352 157.216 22.54V10.696C157.216 9.884 156.516 9.212 155.704 9.212C154.892 9.212 154.22 9.884 154.22 10.696V11.816C153.492 10.192 151.7 9.128 149.628 9.128ZM150.104 21.504C148.06 21.504 145.764 19.908 145.764 16.576C145.764 13.272 148.06 11.676 150.104 11.676C152.008 11.676 154.36 13.076 154.36 16.576C154.36 20.048 152.008 21.504 150.104 21.504Z" fill="white" />
	<path d="M168.17 9.128C166.098 9.128 164.306 10.192 163.578 11.816V10.696C163.578 10.612 163.578 10.5 163.55 10.416V5.348C163.55 4.536 162.878 3.864 162.094 3.864C161.282 3.864 160.582 4.536 160.582 5.348V22.54C160.582 23.352 161.282 24.024 162.094 24.024C162.906 24.024 163.578 23.352 163.578 22.54V21.028C163.774 22.288 165.51 24.052 168.17 24.052C171.278 24.052 175.002 21.644 175.002 16.576C175.002 11.592 171.25 9.128 168.17 9.128ZM167.694 21.504C165.79 21.504 163.438 20.048 163.438 16.576C163.438 13.076 165.79 11.676 167.694 11.676C169.738 11.676 172.034 13.272 172.034 16.576C172.034 19.908 169.738 21.504 167.694 21.504Z" fill="white" />
	<defs>
		<linearGradient id="paint0_linear_3276_3003" x1="-0.00455471" y1="13.5758" x2="35.291" y2="13.5758" gradientUnits="userSpaceOnUse">
			<stop stop-color="#2949FB" />
			<stop offset="0.516512" stop-color="#9B46CA" />
			<stop offset="1" stop-color="#F65C3B" />
		</linearGradient>
	</defs>
</svg>
