<svg width="126" height="20" viewBox="0 0 126 20" fill="none" xmlns="http://www.w3.org/2000/svg">
<g clip-path="url(#clip0_3211_2721)">
<path d="M16.179 19.912C17.8602 19.8114 19.4876 19.2754 20.9045 18.3556C22.3215 17.4358 23.4803 16.1631 24.2696 14.6599C25.0588 13.1567 25.452 11.4737 25.4112 9.7726C25.3704 8.07153 24.897 6.40968 24.0367 4.94689C23.1763 3.4841 21.9578 2.26959 20.4985 1.42017C19.0391 0.570748 17.388 0.115001 15.7038 0.0967613C14.0197 0.0785214 12.3593 0.498402 10.8823 1.31602C9.40521 2.13364 8.16125 3.32148 7.27003 4.7653C5.35031 4.82725 3.52713 5.63036 2.17578 7.00933C0.824426 8.38829 0.0477317 10.2382 0.00556271 12.1782C-0.0366063 14.1182 0.658959 16.0008 1.94909 17.4383C3.23922 18.8759 5.02574 19.7591 6.94093 19.9062V19.9283H16.179V19.912Z" fill="url(#paint0_linear_3211_2721)"/>
<path d="M13.2609 10.3414L12.5703 11.0646C12.004 11.6579 11.2864 12.0852 10.4949 12.3003C9.70336 12.5153 8.86813 12.51 8.07947 12.2847C8.16949 12.3855 8.26351 12.4827 8.36131 12.576C10.3584 14.4832 13.5232 14.4104 15.4305 12.4134L17.2384 14.14L17.799 7.76149L11.453 8.61478L13.2609 10.3414Z" fill="white"/>
</g>
<path d="M35.2477 3.06015C32.8277 3.06015 30.8677 4.52014 30.8677 6.78012C30.8677 8.7401 32.3477 9.76009 34.3477 10.5401L35.4277 10.9601C36.9677 11.5601 37.9077 12.0601 37.9077 13.3201C37.9077 14.88 36.4277 15.4 35.1877 15.4C34.1077 15.4 33.0477 14.94 32.3677 13.9001C32.1477 13.5601 31.8077 13.2601 31.3277 13.2601C30.7277 13.2601 30.4277 13.7201 30.4277 14.2C30.4277 14.64 30.6877 15 30.8477 15.22C31.7477 16.6 33.4877 17.34 35.1877 17.34C37.5077 17.34 40.1277 15.98 40.1277 13.3201C40.1277 11.3001 38.6877 10.2801 35.8677 9.2001L34.8877 8.8201C33.5877 8.3201 33.0277 7.68011 33.0277 6.80012C33.0277 5.70013 33.9077 4.98014 35.3277 4.98014C36.4677 4.98014 37.0877 5.48013 37.6477 6.22012C37.8677 6.48012 38.1877 6.68012 38.5677 6.68012C39.0877 6.68012 39.4677 6.30012 39.4677 5.82013C39.4677 5.50013 39.3077 5.20013 39.0077 4.82014C38.2477 3.86014 37.0877 3.06015 35.2477 3.06015Z" fill="white"/>
<path d="M46.9962 6.68012C44.6963 6.68012 41.7363 8.4601 41.7363 12.0201C41.7363 15.6 44.6963 17.34 46.9962 17.34C49.2962 17.34 52.2762 15.6 52.2762 12.0201C52.2762 8.4601 49.2962 6.68012 46.9962 6.68012ZM46.9962 8.5201C48.5562 8.5201 50.1762 9.74009 50.1762 12.0201C50.1762 14.28 48.5562 15.5 46.9962 15.5C45.4563 15.5 43.8363 14.28 43.8363 12.0201C43.8363 9.74009 45.4563 8.5201 46.9962 8.5201Z" fill="white"/>
<path d="M65.8693 15.38C65.6493 15.4 65.3493 15.48 65.0893 15.48C64.6293 15.48 64.3893 15.2 64.3893 14.6V8.5001H65.8493C66.3693 8.5001 66.7293 8.1601 66.7293 7.64011C66.7293 7.14011 66.3693 6.80012 65.8493 6.80012H64.3893V5.24013C64.3893 4.68014 63.9093 4.20014 63.3293 4.20014C62.7693 4.20014 62.2893 4.68014 62.2893 5.24013V6.80012H56.9093V6.12012C56.9093 5.30013 57.2693 4.46014 58.3893 4.46014C58.7893 4.46014 59.0493 4.58014 59.3293 4.70014C59.6493 4.82014 59.9093 4.90014 60.0893 4.90014C60.5293 4.90014 60.8693 4.58014 60.8693 4.12014C60.8693 3.76015 60.6693 3.50015 60.3293 3.28015C59.7893 2.90015 59.0293 2.66016 58.1293 2.66016C56.8293 2.66016 54.8093 3.30015 54.8093 6.04012V6.80012H54.1493C53.6293 6.80012 53.2893 7.14011 53.2893 7.64011C53.2893 8.1601 53.6293 8.5001 54.1493 8.5001H54.8093V16.26C54.8093 16.84 55.2893 17.32 55.8693 17.32C56.4293 17.32 56.9093 16.84 56.9093 16.26V8.5001H62.2893V14.58C62.2893 16.88 63.4693 17.3 64.6693 17.3C65.7893 17.3 66.7293 16.94 66.7293 16.12C66.7293 15.62 66.3693 15.3 65.8693 15.38Z" fill="white"/>
<path d="M78.7633 14.1C78.3433 14.1 78.0633 14.3 77.8033 14.5C77.3633 14.84 76.4833 15.28 75.3633 15.28C72.8633 15.28 70.5633 13.1201 70.5633 10.2001C70.5633 7.28011 72.8633 5.12013 75.3633 5.12013C76.4833 5.12013 77.3633 5.56013 77.8033 5.90013C78.0633 6.10012 78.3433 6.30012 78.7633 6.30012C79.2833 6.30012 79.7633 5.94013 79.7633 5.32013C79.7633 4.82014 79.4233 4.46014 78.8233 4.06014C77.9233 3.44015 76.7633 3.06015 75.3433 3.06015C71.8233 3.06015 68.3033 5.98013 68.3033 10.2001C68.3033 14.42 71.8233 17.34 75.3433 17.34C76.7633 17.34 77.9233 16.96 78.8233 16.34C79.4233 15.94 79.7633 15.58 79.7633 15.08C79.7633 14.46 79.2833 14.1 78.7633 14.1Z" fill="white"/>
<path d="M86.1562 6.68012C83.8562 6.68012 80.8962 8.4601 80.8962 12.0201C80.8962 15.6 83.8562 17.34 86.1562 17.34C88.4562 17.34 91.4362 15.6 91.4362 12.0201C91.4362 8.4601 88.4562 6.68012 86.1562 6.68012ZM86.1562 8.5201C87.7162 8.5201 89.3362 9.74009 89.3362 12.0201C89.3362 14.28 87.7162 15.5 86.1562 15.5C84.6162 15.5 82.9962 14.28 82.9962 12.0201C82.9962 9.74009 84.6162 8.5201 86.1562 8.5201Z" fill="white"/>
<path d="M95.5646 16.24V3.98014C95.5646 3.40015 95.0846 2.92015 94.5046 2.92015C93.9246 2.92015 93.4446 3.40015 93.4446 3.98014V16.24C93.4446 16.82 93.9246 17.3 94.5046 17.3C95.0846 17.3 95.5646 16.82 95.5646 16.24Z" fill="white"/>
<path d="M100.076 16.24V3.98014C100.076 3.40015 99.5963 2.92015 99.0163 2.92015C98.4363 2.92015 97.9563 3.40015 97.9563 3.98014V16.24C97.9563 16.82 98.4363 17.3 99.0163 17.3C99.5963 17.3 100.076 16.82 100.076 16.24Z" fill="white"/>
<path d="M106.948 6.68012C104.748 6.68012 102.068 8.4401 102.068 12.0001C102.068 15.62 104.728 17.34 106.948 17.34C108.848 17.34 110.088 16.08 110.228 15.18V16.26C110.228 16.84 110.708 17.32 111.288 17.32C111.868 17.32 112.368 16.84 112.368 16.26V7.80011C112.368 7.22011 111.868 6.74012 111.288 6.74012C110.708 6.74012 110.228 7.22011 110.228 7.80011V8.6001C109.708 7.44011 108.428 6.68012 106.948 6.68012ZM107.288 15.52C105.828 15.52 104.188 14.38 104.188 12.0001C104.188 9.64009 105.828 8.5001 107.288 8.5001C108.648 8.5001 110.328 9.50009 110.328 12.0001C110.328 14.48 108.648 15.52 107.288 15.52Z" fill="white"/>
<path d="M120.193 6.68012C118.713 6.68012 117.433 7.44011 116.913 8.6001V7.80011C116.913 7.74011 116.913 7.66011 116.893 7.60011V3.98014C116.893 3.40015 116.413 2.92015 115.853 2.92015C115.273 2.92015 114.773 3.40015 114.773 3.98014V16.26C114.773 16.84 115.273 17.32 115.853 17.32C116.433 17.32 116.913 16.84 116.913 16.26V15.18C117.053 16.08 118.293 17.34 120.193 17.34C122.413 17.34 125.073 15.62 125.073 12.0001C125.073 8.4401 122.393 6.68012 120.193 6.68012ZM119.853 15.52C118.493 15.52 116.813 14.48 116.813 12.0001C116.813 9.50009 118.493 8.5001 119.853 8.5001C121.313 8.5001 122.953 9.64009 122.953 12.0001C122.953 14.38 121.313 15.52 119.853 15.52Z" fill="white"/>
<defs>
<linearGradient id="paint0_linear_3211_2721" x1="25.6254" y1="9.71177" x2="0.000490674" y2="9.71177" gradientUnits="userSpaceOnUse">
<stop stop-color="#F65C3B"/>
<stop offset="0.516512" stop-color="#9B46CA"/>
<stop offset="1" stop-color="#2949FB"/>
</linearGradient>
<clipPath id="clip0_3211_2721">
<rect width="25.4284" height="19.9998" fill="white" transform="matrix(-1 0 0 1 25.4277 0)"/>
</clipPath>
</defs>
</svg>