<svg width="14" height="14" viewBox="0 0 14 14" fill="none" xmlns="http://www.w3.org/2000/svg">
	<path d="M7 14C3.1339 14 5.12393e-07 10.8661 8.50378e-07 7C1.18836e-06 3.1339 3.1339 -7.11526e-07 7 -3.73541e-07C10.8661 -3.55557e-08 14 3.1339 14 7L12.6 7C12.6 3.9074 10.0926 1.4 7 1.4C3.9074 1.4 1.4 3.9074 1.4 7C1.4 10.0926 3.9074 12.6 7 12.6C8.925 12.6 10.6232 11.6291 11.6305 10.15L9.8 10.15L9.8 8.75L14 8.75L14 12.95L12.6 12.95L12.6 11.2C11.3232 12.901 9.2897 14 7 14ZM6.3 10.5L6.3 7.2905L4.0299 5.0204L5.0204 4.0299L7.7 6.7109L7.7 10.5L6.3 10.5Z" fill="white" />
</svg>
