<svg width="13" height="12" viewBox="0 0 13 12" fill="none" xmlns="http://www.w3.org/2000/svg">
	<path d="M0.171875 6C0.171875 2.6862 2.85807 -5.94255e-07 6.17187 -7.39106e-07C9.48567 -8.83956e-07 12.1719 2.6862 12.1719 6C12.1719 9.3138 9.48568 12 6.17188 12L6.17188 10.8C8.82268 10.8 10.9719 8.6508 10.9719 6C10.9719 3.3492 8.82268 1.2 6.17187 1.2C3.52107 1.2 1.37187 3.3492 1.37187 6C1.37187 7.65 2.20408 9.1056 3.47188 9.969L3.47187 8.4L4.67188 8.4L4.67188 12L1.07188 12L1.07187 10.8L2.57188 10.8C1.11387 9.7056 0.171875 7.9626 0.171875 6ZM3.17187 5.4L5.92287 5.4L7.86867 3.4542L8.71768 4.3032L6.41968 6.6L3.17187 6.6L3.17187 5.4Z" fill="#757575" />
</svg>
