<svg width="32" height="32" viewBox="0 0 32 32" fill="none" xmlns="http://www.w3.org/2000/svg">
	<circle cx="16" cy="16" r="16" fill="white" fill-opacity="0.05" />
	<g clip-path="url(#clip0_2901_5251)">
		<path d="M16.6666 17.375V22.667H10.6666C10.6666 21.9103 10.8275 21.1622 11.1388 20.4725C11.4501 19.7828 11.9046 19.1672 12.4721 18.6667C13.0396 18.1661 13.7071 17.7921 14.4303 17.5694C15.1535 17.3467 15.9158 17.2804 16.6666 17.375ZM16 16.667C13.79 16.667 12 14.877 12 12.667C12 10.457 13.79 8.66699 16 8.66699C18.21 8.66699 20 10.457 20 12.667C20 14.877 18.21 16.667 16 16.667ZM19.862 21.2763L22.2186 18.9197L23.162 19.8623L19.862 23.1623L17.5046 20.805L18.448 19.8623L19.862 21.2763Z" fill="#BDBDBD" />
	</g>
	<defs>
		<clipPath id="clip0_2901_5251">
			<rect width="16" height="16" fill="white" transform="translate(8 8)" />
		</clipPath>
	</defs>
</svg>
