<svg width="8" height="9" viewBox="0 0 8 9" fill="none" xmlns="http://www.w3.org/2000/svg">
<path fill-rule="evenodd" clip-rule="evenodd" d="M0.021604 8.72794C0.00154149 8.82952 0.068807 8.91122 0.172823 8.91043L5.87081 8.86646C5.9744 8.86566 6.04331 8.78236 6.02474 8.68036L5.46984 5.63757C5.45123 5.53561 5.39362 5.52539 5.34107 5.61474L4.91189 6.34515C4.85939 6.43454 4.83173 6.58922 4.85034 6.69146L5.08073 7.95849C5.09924 8.06044 5.03048 8.14304 4.9266 8.14304H1.15378C1.05014 8.14304 0.98226 8.06077 1.00223 7.95929L2.38373 0.931035L3.71685 0.908066L4.26932 2.99072C4.2959 3.09099 4.36354 3.10257 4.42101 3.0158L4.81438 2.42189C4.87157 2.3355 4.89548 2.1848 4.86778 2.0851L4.41796 0.46791C4.36246 0.268363 4.14914 0.108051 3.94274 0.109879L2.09629 0.126238C1.88934 0.128066 1.68904 0.294238 1.64892 0.497113L0.021604 8.72794Z" fill="#BDBDBD"/>
<path fill-rule="evenodd" clip-rule="evenodd" d="M2.53688 7.32496C2.48147 7.41238 2.52062 7.48325 2.6244 7.48325H3.20527C3.30905 7.48325 3.43815 7.41181 3.49322 7.32435L6.51901 2.52139C6.57432 2.43369 6.7021 2.3481 6.80382 2.33042L7.25293 2.25228C7.35497 2.23452 7.46349 2.14072 7.49565 2.04153L7.71933 1.35294C7.75135 1.25431 7.71638 1.11697 7.64072 1.04567L7.10316 0.539236C7.02774 0.468127 6.89307 0.451955 6.80316 0.502674L6.25008 0.814627C6.15985 0.865533 6.08012 0.990596 6.07201 1.09372L6.02804 1.65467C6.01993 1.75789 5.96851 1.91239 5.91305 1.99981L2.53683 7.32496H2.53688Z" fill="#BDBDBD"/>
</svg>
