<svg width="32" height="32" viewBox="0 0 32 32" fill="none" xmlns="http://www.w3.org/2000/svg">
	<circle cx="16" cy="16" r="16" fill="#2C2C2C" />
	<g clip-path="url(#clip0_3421_3130)">
		<path d="M18.6667 9.3335L22 12.6668V22.0055C21.9998 22.181 21.93 22.3492 21.8059 22.4732C21.6817 22.5972 21.5135 22.6668 21.338 22.6668H10.662C10.4869 22.6656 10.3193 22.5956 10.1955 22.4718C10.0716 22.3481 10.0014 22.1806 10 22.0055V9.99483C10 9.6295 10.2967 9.3335 10.662 9.3335H18.6667ZM15.3333 15.3335H13.3333V16.6668H15.3333V18.6668H16.6667V16.6668H18.6667V15.3335H16.6667V13.3335H15.3333V15.3335Z" fill="#BDBDBD" />
	</g>
	<defs>
		<clipPath id="clip0_3421_3130">
			<rect width="16" height="16" fill="white" transform="translate(8 8)" />
		</clipPath>
	</defs>
</svg>
