<svg width="9" height="11" viewBox="0 0 9 11" fill="none" xmlns="http://www.w3.org/2000/svg">
<path d="M0.624999 9.5625C0.624999 9.81114 0.723771 10.0496 0.899586 10.2254C1.0754 10.4012 1.31386 10.5 1.5625 10.5H7.18749C7.43613 10.5 7.67459 10.4012 7.8504 10.2254C8.02622 10.0496 8.12499 9.81114 8.12499 9.5625V3H0.624999V9.5625ZM5.93749 4.5625C5.93749 4.47962 5.97042 4.40014 6.02902 4.34153C6.08763 4.28293 6.16711 4.25 6.24999 4.25C6.33287 4.25 6.41236 4.28293 6.47096 4.34153C6.52957 4.40014 6.56249 4.47962 6.56249 4.5625V8.9375C6.56249 9.02038 6.52957 9.09987 6.47096 9.15847C6.41236 9.21708 6.33287 9.25 6.24999 9.25C6.16711 9.25 6.08763 9.21708 6.02902 9.15847C5.97042 9.09987 5.93749 9.02038 5.93749 8.9375V4.5625ZM4.0625 4.5625C4.0625 4.47962 4.09542 4.40014 4.15402 4.34153C4.21263 4.28293 4.29212 4.25 4.375 4.25C4.45788 4.25 4.53736 4.28293 4.59597 4.34153C4.65457 4.40014 4.6875 4.47962 4.6875 4.5625V8.9375C4.6875 9.02038 4.65457 9.09987 4.59597 9.15847C4.53736 9.21708 4.45788 9.25 4.375 9.25C4.29212 9.25 4.21263 9.21708 4.15402 9.15847C4.09542 9.09987 4.0625 9.02038 4.0625 8.9375V4.5625ZM2.1875 4.5625C2.1875 4.47962 2.22042 4.40014 2.27903 4.34153C2.33763 4.28293 2.41712 4.25 2.5 4.25C2.58288 4.25 2.66236 4.28293 2.72097 4.34153C2.77957 4.40014 2.8125 4.47962 2.8125 4.5625V8.9375C2.8125 9.02038 2.77957 9.09987 2.72097 9.15847C2.66236 9.21708 2.58288 9.25 2.5 9.25C2.41712 9.25 2.33763 9.21708 2.27903 9.15847C2.22042 9.09987 2.1875 9.02038 2.1875 8.9375V4.5625ZM8.43749 1.125H6.09374L5.91015 0.759769C5.87126 0.681686 5.81135 0.616004 5.73717 0.570112C5.66298 0.524221 5.57746 0.499941 5.49023 0.500003H3.25781C3.17077 0.499669 3.0854 0.523858 3.01148 0.569801C2.93756 0.615743 2.87807 0.68158 2.83984 0.759769L2.65625 1.125H0.3125C0.22962 1.125 0.150134 1.15793 0.091529 1.21653C0.032924 1.27514 0 1.35462 0 1.4375L0 2.0625C0 2.14538 0.032924 2.22487 0.091529 2.28347C0.150134 2.34208 0.22962 2.375 0.3125 2.375H8.43749C8.52037 2.375 8.59986 2.34208 8.65846 2.28347C8.71707 2.22487 8.74999 2.14538 8.74999 2.0625V1.4375C8.74999 1.35462 8.71707 1.27514 8.65846 1.21653C8.59986 1.15793 8.52037 1.125 8.43749 1.125Z" fill="white"/>
</svg>
