<svg width="10" height="11" viewBox="0 0 10 11" fill="none" xmlns="http://www.w3.org/2000/svg">
<g clip-path="url(#clip0_581_358)">
<path d="M4.21875 0.5H5.78125C6.04102 0.5 6.25 0.708984 6.25 0.96875V4.25H7.96289C8.31055 4.25 8.48438 4.66992 8.23828 4.91602L5.26758 7.88867C5.12109 8.03516 4.88086 8.03516 4.73438 7.88867L1.75977 4.91602C1.51367 4.66992 1.6875 4.25 2.03516 4.25H3.75V0.96875C3.75 0.708984 3.95898 0.5 4.21875 0.5ZM10 7.84375V10.0312C10 10.291 9.79102 10.5 9.53125 10.5H0.46875C0.208984 10.5 0 10.291 0 10.0312V7.84375C0 7.58398 0.208984 7.375 0.46875 7.375H3.33398L4.29102 8.33203C4.68359 8.72461 5.31641 8.72461 5.70898 8.33203L6.66602 7.375H9.53125C9.79102 7.375 10 7.58398 10 7.84375ZM7.57812 9.5625C7.57812 9.34766 7.40234 9.17188 7.1875 9.17188C6.97266 9.17188 6.79688 9.34766 6.79688 9.5625C6.79688 9.77734 6.97266 9.95312 7.1875 9.95312C7.40234 9.95312 7.57812 9.77734 7.57812 9.5625ZM8.82812 9.5625C8.82812 9.34766 8.65234 9.17188 8.4375 9.17188C8.22266 9.17188 8.04688 9.34766 8.04688 9.5625C8.04688 9.77734 8.22266 9.95312 8.4375 9.95312C8.65234 9.95312 8.82812 9.77734 8.82812 9.5625Z" fill="white"/>
</g>
<defs>
<clipPath id="clip0_581_358">
<rect width="10" height="10" fill="white" transform="translate(0 0.5)"/>
</clipPath>
</defs>
</svg>
