<svg width="32" height="32" viewBox="0 0 32 32" fill="none" xmlns="http://www.w3.org/2000/svg">
	<circle cx="16" cy="16" r="16" fill="white" fill-opacity="0.05" />
	<g clip-path="url(#clip0_2901_5289)">
		<path d="M12.6676 21.9875C11.757 21.9176 10.8917 21.5617 10.1954 20.9707C9.49903 20.3798 9.00723 19.5839 8.79017 18.6967C8.57312 17.8096 8.64191 16.8765 8.98674 16.0308C9.33156 15.1851 9.93478 14.47 10.7103 13.9875C10.8753 12.7009 11.5035 11.5185 12.4773 10.6616C13.4511 9.80471 14.7038 9.33203 16.0009 9.33203C17.2981 9.33203 18.5508 9.80471 19.5246 10.6616C20.4984 11.5185 21.1266 12.7009 21.2916 13.9875C22.0671 14.47 22.6703 15.1851 23.0151 16.0308C23.36 16.8765 23.4287 17.8096 23.2117 18.6967C22.9946 19.5839 22.5028 20.3798 21.8065 20.9707C21.1102 21.5617 20.2449 21.9176 19.3343 21.9875V22.0002H12.6676V21.9875ZM16.6676 16.6668H18.6676L16.0009 13.3335L13.3343 16.6668H15.3343V19.3335H16.6676V16.6668Z" fill="#BDBDBD" />
	</g>
	<defs>
		<clipPath id="clip0_2901_5289">
			<rect width="16" height="16" fill="white" transform="translate(8 8)" />
		</clipPath>
	</defs>
</svg>
