<svg width="12" height="13" viewBox="0 0 12 13" fill="none" xmlns="http://www.w3.org/2000/svg">
<g>
<path d="M10.299 7.0875C10.324 6.9 10.3365 6.70625 10.3365 6.5C10.3365 6.3 10.324 6.1 10.2927 5.9125L11.5615 4.925C11.6161 4.87994 11.6535 4.81731 11.6672 4.74779C11.6808 4.67828 11.67 4.60617 11.6365 4.54375L10.4365 2.46875C10.4011 2.40598 10.3447 2.35774 10.2772 2.33257C10.2097 2.3074 10.1355 2.30694 10.0677 2.33125L8.57396 2.93125C8.26146 2.69375 7.93021 2.49375 7.56146 2.34375L7.33646 0.756252C7.3254 0.684708 7.28904 0.619506 7.23399 0.572487C7.17894 0.525468 7.10886 0.499749 7.03646 0.500002H4.63646C4.48646 0.500002 4.36771 0.606252 4.34271 0.756252L4.11771 2.34375C3.74896 2.49375 3.41146 2.7 3.10521 2.93125L1.61146 2.33125C1.47396 2.28125 1.31771 2.33125 1.24271 2.46875L0.0489644 4.54375C-0.0260356 4.675 -0.00103567 4.8375 0.123964 4.925L1.39271 5.9125C1.36146 6.1 1.33646 6.30625 1.33646 6.5C1.33646 6.69375 1.34896 6.9 1.38021 7.0875L0.111464 8.075C0.0567918 8.12007 0.0194354 8.18269 0.00575968 8.25221C-0.00791603 8.32173 0.00293517 8.39384 0.0364644 8.45625L1.23646 10.5313C1.31146 10.6688 1.46771 10.7125 1.60521 10.6688L3.09896 10.0688C3.41146 10.3063 3.74271 10.5063 4.11146 10.6562L4.33646 12.2438C4.36771 12.3938 4.48646 12.5 4.63646 12.5H7.03646C7.18646 12.5 7.31146 12.3938 7.33021 12.2438L7.55521 10.6562C7.92396 10.5063 8.26146 10.3063 8.56771 10.0688L10.0615 10.6688C10.199 10.7188 10.3552 10.6688 10.4302 10.5313L11.6302 8.45625C11.7052 8.31875 11.674 8.1625 11.5552 8.075L10.299 7.0875ZM5.83646 8.75C4.59896 8.75 3.58646 7.7375 3.58646 6.5C3.58646 5.2625 4.59896 4.25 5.83646 4.25C7.07396 4.25 8.08646 5.2625 8.08646 6.5C8.08646 7.7375 7.07396 8.75 5.83646 8.75Z" fill="#757575"/>
</g>
</svg>
