<svg width="11" height="12" viewBox="0 0 11 12" fill="none" xmlns="http://www.w3.org/2000/svg">
	<path fill-rule="evenodd" clip-rule="evenodd" d="M0.200136 11.7512C0.17278 11.8897 0.2645 12.0011 0.40633 12L8.17581 11.94C8.31706 11.939 8.41102 11.8254 8.38571 11.6863L7.62907 7.53729C7.60369 7.39827 7.52514 7.38434 7.45349 7.50616L6.86827 8.50211C6.79668 8.624 6.75897 8.83492 6.78435 8.97432L7.0985 10.702C7.12374 10.841 7.02998 10.9536 6.88834 10.9536H1.74391C1.60259 10.9536 1.51004 10.8414 1.53727 10.7031L3.42101 1.11971L5.23879 1.08839L5.99211 3.92819C6.02835 4.06491 6.12058 4.0807 6.19894 3.96239L6.73532 3.15257C6.8133 3.03477 6.8459 2.82928 6.80813 2.69333L6.19478 0.488214C6.11911 0.216122 5.82822 -0.00247163 5.5468 2.11092e-05L3.02907 0.0223278C2.74688 0.0248206 2.47377 0.251404 2.41906 0.528034L0.200136 11.7512Z" fill="#99BDFF" />
	<path fill-rule="evenodd" clip-rule="evenodd" d="M3.63001 9.83838C3.55446 9.95758 3.60783 10.0542 3.74934 10.0542H4.5414C4.68291 10.0542 4.85893 9.95682 4.93403 9.83755L9.05983 3.28849C9.13525 3.1689 9.30949 3.05219 9.44819 3.0281L10.0606 2.92155C10.1997 2.89732 10.3477 2.76943 10.3915 2.63418L10.6965 1.69525C10.7402 1.56077 10.6925 1.37349 10.5894 1.27628L9.85636 0.585725C9.75352 0.488764 9.56989 0.466713 9.44729 0.53587L8.69314 0.961233C8.57011 1.03065 8.46138 1.20118 8.45033 1.34179L8.39037 2.10668C8.37932 2.24742 8.3092 2.45809 8.23359 2.57729L3.62995 9.83838H3.63001Z" fill="#99BDFF" />
</svg>
