<svg width="12" height="12" viewBox="0 0 12 12" fill="none" xmlns="http://www.w3.org/2000/svg">
	<path d="M5.97 9.6C6.18 9.6 6.3576 9.5274 6.5028 9.3822C6.648 9.237 6.7204 9.0596 6.72 8.85C6.72 8.64 6.6476 8.4624 6.5028 8.3172C6.358 8.172 6.1804 8.0996 5.97 8.1C5.76 8.1 5.5826 8.1726 5.4378 8.3178C5.293 8.463 5.2204 8.6404 5.22 8.85C5.22 9.06 5.2926 9.2376 5.4378 9.3828C5.583 9.528 5.7604 9.6004 5.97 9.6ZM6.06 3.42C6.34 3.42 6.565 3.4974 6.735 3.6522C6.905 3.807 6.99 4.0096 6.99 4.26C6.99 4.43 6.9326 4.6024 6.8178 4.7772C6.703 4.952 6.5404 5.1346 6.33 5.325C6.03 5.585 5.81 5.835 5.67 6.075C5.53 6.315 5.46 6.555 5.46 6.795C5.46 6.935 5.5126 7.0526 5.6178 7.1478C5.723 7.243 5.8454 7.2904 5.985 7.29C6.125 7.29 6.25 7.24 6.36 7.14C6.47 7.04 6.54 6.915 6.57 6.765C6.6 6.595 6.6676 6.4374 6.7728 6.2922C6.878 6.147 7.0504 5.9596 7.29 5.73C7.6 5.44 7.8176 5.175 7.9428 4.935C8.068 4.695 8.1304 4.43 8.13 4.14C8.13 3.63 7.9374 3.2126 7.5522 2.8878C7.167 2.563 6.6696 2.4004 6.06 2.4C5.64 2.4 5.2676 2.48 4.9428 2.64C4.618 2.8 4.3654 3.045 4.185 3.375C4.115 3.505 4.09 3.6326 4.11 3.7578C4.13 3.883 4.2 3.9854 4.32 4.065C4.45 4.145 4.5926 4.17 4.7478 4.14C4.903 4.11 5.0304 4.025 5.13 3.885C5.24 3.735 5.3724 3.62 5.5272 3.54C5.682 3.46 5.8596 3.42 6.06 3.42ZM6 12C5.18 12 4.405 11.8424 3.675 11.5272C2.945 11.212 2.3074 10.7846 1.7622 10.245C1.2174 9.705 0.787401 9.07 0.472201 8.34C0.157001 7.61 -0.00039924 6.83 7.60456e-07 6C7.60456e-07 5.17 0.157601 4.39 0.472801 3.66C0.788001 2.93 1.218 2.295 1.7628 1.755C2.3076 1.215 2.9448 0.7876 3.6744 0.4728C4.404 0.158 5.1792 0.0004 6 0C6.84 0 7.625 0.1576 8.355 0.4728C9.085 0.788 9.72 1.2154 10.26 1.755C10.8 2.295 11.225 2.93 11.535 3.66C11.845 4.39 12 5.17 12 6C12 6.83 11.845 7.61 11.535 8.34C11.225 9.07 10.8 9.705 10.26 10.245C9.72 10.785 9.085 11.2126 8.355 11.5278C7.625 11.843 6.84 12.0004 6 12Z" fill="#757575" />
</svg>
