<svg width="17" height="12" viewBox="0 0 17 12" fill="none" xmlns="http://www.w3.org/2000/svg">
	<path d="M0.605208 5.46917L6.01837 0.220041C6.50169 -0.248631 7.33944 0.0794393 7.33944 0.751203L7.33944 3.7507L11.7215 3.75071C12.1501 3.75071 12.4948 4.08502 12.4948 4.50058L12.4948 7.50008C12.4948 7.91564 12.1501 8.24996 11.7215 8.24996L7.33944 8.24996L7.33944 11.2495C7.33944 11.9181 6.50491 12.2493 6.01837 11.7806L0.605208 6.53149C0.30555 6.23779 0.30555 5.76287 0.605208 5.46917ZM10.4327 0.376265L10.4327 1.62606C10.4327 1.83227 10.6067 2.001 10.8193 2.001L13.5259 2.001C14.0962 2.001 14.557 2.4478 14.557 3.00083L14.557 8.99983C14.557 9.55287 14.0962 9.99967 13.5259 9.99967L10.8193 9.99967C10.6067 9.99967 10.4327 10.1684 10.4327 10.3746L10.4327 11.6244C10.4327 11.8306 10.6067 11.9993 10.8193 11.9993L13.5259 11.9993C15.2336 11.9993 16.6191 10.6558 16.6191 8.99983L16.6191 3.00083C16.6191 1.34486 15.2336 0.00132835 13.5259 0.0013282L10.8193 0.00132796C10.6067 0.00132794 10.4327 0.170049 10.4327 0.376265Z" fill="#757575" />
</svg>
