<svg width="14" height="14" viewBox="0 0 14 14" fill="none" xmlns="http://www.w3.org/2000/svg">
<path d="M7.58268 11.0835C7.58268 11.2818 7.60602 11.4743 7.63518 11.6668H2.33268C2.02326 11.6668 1.72652 11.5439 1.50772 11.3251C1.28893 11.1063 1.16602 10.8096 1.16602 10.5002V3.50016C1.16602 2.85266 1.68518 2.3335 2.33268 2.3335H5.83268L6.99935 3.50016H11.666C11.9754 3.50016 12.2722 3.62308 12.491 3.84187C12.7098 4.06066 12.8327 4.35741 12.8327 4.66683V8.056C12.3193 7.7585 11.7243 7.5835 11.0827 7.5835C9.15185 7.5835 7.58268 9.15266 7.58268 11.0835ZM13.416 11.0835L11.666 9.3335V10.5002H9.33268V11.6668H11.666V12.8335L13.416 11.0835Z" fill="#757575"/>
</svg>