<svg width="13" height="13" viewBox="0 0 13 13" fill="none" xmlns="http://www.w3.org/2000/svg">
<path d="M6.50132 6.27895C6.57645 6.27895 6.64941 6.28473 6.72165 6.29557C6.20635 6.66281 5.78635 7.14797 5.4967 7.71056C5.20705 8.27314 5.05615 8.89684 5.05659 9.52962C5.05659 10.1248 5.18733 10.6905 5.4221 11.1968C4.94504 11.2922 4.45951 11.3386 3.97303 11.3355C1.50831 11.3355 0 10.291 0 8.80725V7.72369C0 7.34053 0.152213 6.97305 0.423154 6.70211C0.694095 6.43117 1.06157 6.27895 1.44474 6.27895H6.50132ZM10.8355 3.75066C10.8355 4.22962 10.6453 4.68897 10.3066 5.02764C9.96792 5.36632 9.50858 5.55659 9.02962 5.55659C8.55066 5.55659 8.09131 5.36632 7.75264 5.02764C7.41396 4.68897 7.22369 4.22962 7.22369 3.75066C7.22369 3.2717 7.41396 2.81236 7.75264 2.47368C8.09131 2.13501 8.55066 1.94474 9.02962 1.94474C9.50858 1.94474 9.96792 2.13501 10.3066 2.47368C10.6453 2.81236 10.8355 3.2717 10.8355 3.75066ZM3.97303 0.5C4.30505 0.5 4.63382 0.565396 4.94057 0.692455C5.24731 0.819513 5.52603 1.00575 5.7608 1.24052C5.99558 1.47529 6.18181 1.75401 6.30887 2.06076C6.43593 2.3675 6.50132 2.69627 6.50132 3.02829C6.50132 3.36031 6.43593 3.68908 6.30887 3.99583C6.18181 4.30258 5.99558 4.58129 5.7608 4.81607C5.52603 5.05084 5.24731 5.23707 4.94057 5.36413C4.63382 5.49119 4.30505 5.55659 3.97303 5.55659C3.30249 5.55659 2.65941 5.29021 2.18526 4.81607C1.71111 4.34192 1.44474 3.69884 1.44474 3.02829C1.44474 2.35775 1.71111 1.71467 2.18526 1.24052C2.65941 0.766373 3.30249 0.5 3.97303 0.5ZM7.27137 7.32061C7.32339 7.50599 7.33784 7.6999 7.31385 7.89095C7.28986 8.08199 7.22793 8.26631 7.13169 8.43308C7.03546 8.59985 6.90685 8.7457 6.75345 8.86205C6.60004 8.97841 6.42492 9.06293 6.23838 9.11064L5.90465 9.19588C5.88054 9.44007 5.88297 9.68615 5.91187 9.92981L6.1647 9.98977C6.35622 10.0351 6.53647 10.119 6.69439 10.2364C6.85231 10.3539 6.98456 10.5024 7.08305 10.6727C7.18153 10.8431 7.24417 11.0318 7.26711 11.2273C7.29006 11.4228 7.27282 11.6209 7.21647 11.8094L7.12473 12.1143C7.3111 12.2616 7.51264 12.3873 7.72791 12.4884L7.96268 12.2399C8.09783 12.0968 8.26081 11.9829 8.4416 11.905C8.62239 11.8271 8.81719 11.787 9.01404 11.7872C9.21088 11.7873 9.40562 11.8277 9.58631 11.9058C9.767 11.9839 9.92981 12.0981 10.0648 12.2414L10.3082 12.5C10.5191 12.4025 10.7185 12.2818 10.902 12.1403L10.7893 11.7386C10.7372 11.5532 10.7226 11.3592 10.7466 11.1681C10.7705 10.977 10.8324 10.7925 10.9287 10.6257C11.0249 10.4588 11.1536 10.3129 11.307 10.1965C11.4605 10.0801 11.6357 9.99558 11.8223 9.94787L12.1546 9.86335C12.1786 9.61892 12.1762 9.37261 12.1474 9.1287L11.896 9.06947C11.7044 9.02419 11.5241 8.94022 11.3661 8.82273C11.2081 8.70524 11.0758 8.5567 10.9773 8.38623C10.8788 8.21576 10.8162 8.02695 10.7933 7.83141C10.7704 7.63586 10.7877 7.43771 10.8442 7.2491L10.9352 6.94498C10.7491 6.79745 10.5467 6.67167 10.332 6.57007L10.0973 6.81856C9.96217 6.96172 9.79924 7.07576 9.61847 7.15368C9.4377 7.23161 9.24292 7.27176 9.04608 7.2717C8.84923 7.27163 8.65448 7.23134 8.47376 7.15329C8.29305 7.07525 8.13019 6.96109 7.99518 6.81784L7.75175 6.55923C7.54107 6.65644 7.34191 6.77686 7.15796 6.91825L7.27137 7.32061ZM9.02962 10.252C8.83803 10.252 8.6543 10.1759 8.51882 10.0404C8.38335 9.90494 8.30725 9.7212 8.30725 9.52962C8.30725 9.33803 8.38335 9.1543 8.51882 9.01882C8.6543 8.88335 8.83803 8.80725 9.02962 8.80725C9.2212 8.80725 9.40494 8.88335 9.54041 9.01882C9.67588 9.1543 9.75199 9.33803 9.75199 9.52962C9.75199 9.7212 9.67588 9.90494 9.54041 10.0404C9.40494 10.1759 9.2212 10.252 9.02962 10.252Z" fill="#757575"/>
</svg>
