<svg width="32" height="32" viewBox="0 0 32 32" fill="none" xmlns="http://www.w3.org/2000/svg">
	<circle cx="16" cy="16" r="16" fill="white" fill-opacity="0.05" />
	<g clip-path="url(#clip0_2901_5270)">
		<path d="M17.3333 17.5017V22.667H10.6666C10.6664 21.8529 10.8526 21.0496 11.2108 20.3186C11.5691 19.5876 12.0899 18.9483 12.7334 18.4497C13.377 17.9511 14.1261 17.6064 14.9234 17.4421C15.7207 17.2778 16.5451 17.2981 17.3333 17.5017ZM16 16.667C13.79 16.667 12 14.877 12 12.667C12 10.457 13.79 8.66699 16 8.66699C18.21 8.66699 20 10.457 20 12.667C20 14.877 18.21 16.667 16 16.667ZM20.6666 19.0577L22.0806 17.643L23.024 18.5863L21.6093 20.0003L23.024 21.4143L22.0806 22.3577L20.6666 20.943L19.2526 22.3577L18.3093 21.4143L19.724 20.0003L18.3093 18.5863L19.2526 17.643L20.6666 19.0577Z" fill="#BDBDBD" />
	</g>
	<defs>
		<clipPath id="clip0_2901_5270">
			<rect width="16" height="16" fill="white" transform="translate(8 8)" />
		</clipPath>
	</defs>
</svg>
