<svg width="13" height="12" viewBox="0 0 13 12" fill="none" xmlns="http://www.w3.org/2000/svg">
<path d="M5.69333 8.86C5.95333 9.12 6.37333 9.12 6.63333 8.86L9.02667 6.46667C9.08847 6.40499 9.1375 6.33173 9.17096 6.25108C9.20441 6.17043 9.22163 6.08398 9.22163 5.99667C9.22163 5.90935 9.20441 5.8229 9.17096 5.74225C9.1375 5.6616 9.08847 5.58834 9.02667 5.52667L6.63333 3.13333C6.50868 3.00868 6.33962 2.93865 6.16333 2.93865C5.98705 2.93865 5.81799 3.00868 5.69333 3.13333C5.56868 3.25799 5.49865 3.42705 5.49865 3.60333C5.49865 3.77962 5.56868 3.94868 5.69333 4.07333L6.94667 5.33333H1.16667C0.8 5.33333 0.5 5.63333 0.5 6C0.5 6.36667 0.8 6.66667 1.16667 6.66667H6.94667L5.69333 7.92C5.43333 8.18 5.44 8.60667 5.69333 8.86ZM11.1667 0H1.83333C1.47971 0 1.14057 0.140476 0.890524 0.390524C0.640476 0.640573 0.5 0.979711 0.5 1.33333V3.33333C0.5 3.7 0.8 4 1.16667 4C1.53333 4 1.83333 3.7 1.83333 3.33333V2C1.83333 1.63333 2.13333 1.33333 2.5 1.33333H10.5C10.8667 1.33333 11.1667 1.63333 11.1667 2V10C11.1667 10.3667 10.8667 10.6667 10.5 10.6667H2.5C2.13333 10.6667 1.83333 10.3667 1.83333 10V8.66667C1.83333 8.3 1.53333 8 1.16667 8C0.8 8 0.5 8.3 0.5 8.66667V10.6667C0.5 11.4 1.1 12 1.83333 12H11.1667C11.9 12 12.5 11.4 12.5 10.6667V1.33333C12.5 0.6 11.9 0 11.1667 0Z" fill="#99BDFF"/>
</svg>
