<svg width="16" height="17" viewBox="0 0 16 17" fill="none" xmlns="http://www.w3.org/2000/svg">
	<path d="M3.84615 5.03846C3.84615 4.36522 4.1136 3.71955 4.58965 3.2435C5.0657 2.76744 5.71137 2.5 6.38461 2.5C7.05785 2.5 7.70352 2.76744 8.17957 3.2435C8.65563 3.71955 8.92307 4.36522 8.92307 5.03846C8.92307 5.7117 8.65563 6.35737 8.17957 6.83342C7.70352 7.30948 7.05785 7.57692 6.38461 7.57692C5.71137 7.57692 5.0657 7.30948 4.58965 6.83342C4.1136 6.35737 3.84615 5.7117 3.84615 5.03846ZM9.84615 6.42307C9.84615 6.15033 9.89987 5.88025 10.0042 5.62827C10.1086 5.37629 10.2616 5.14733 10.4545 4.95447C10.6473 4.76161 10.8763 4.60862 11.1283 4.50425C11.3802 4.39987 11.6503 4.34615 11.9231 4.34615C12.1958 4.34615 12.4659 4.39987 12.7179 4.50425C12.9699 4.60862 13.1988 4.76161 13.3917 4.95447C13.5845 5.14733 13.7375 5.37629 13.8419 5.62827C13.9463 5.88025 14 6.15033 14 6.42307C14 6.97391 13.7812 7.50218 13.3917 7.89168C13.0022 8.28118 12.4739 8.5 11.9231 8.5C11.3722 8.5 10.844 8.28118 10.4545 7.89168C10.065 7.50218 9.84615 6.97391 9.84615 6.42307ZM2 12.8846C2 11.7217 2.46195 10.6065 3.28422 9.78422C4.1065 8.96194 5.22174 8.5 6.38461 8.5C7.54748 8.5 8.66273 8.96194 9.485 9.78422C10.3073 10.6065 10.7692 11.7217 10.7692 12.8846V12.8865L10.7686 12.9597C10.7673 13.0379 10.7461 13.1146 10.707 13.1824C10.668 13.2502 10.6123 13.307 10.5452 13.3474C9.28935 14.1037 7.85062 14.5022 6.38461 14.5C4.86338 14.5 3.43938 14.0791 2.22462 13.3474C2.15745 13.3071 2.10164 13.2503 2.06245 13.1825C2.02327 13.1147 2.00198 13.038 2.00062 12.9597L2 12.8846ZM11.6923 12.8865L11.6917 12.9751C11.6882 13.1802 11.6393 13.382 11.5483 13.5658C12.6226 13.6321 13.6956 13.4179 14.6621 12.9443C14.7369 12.9078 14.8004 12.8517 14.8459 12.782C14.8914 12.7124 14.9172 12.6317 14.9206 12.5486C14.9423 12.0324 14.8304 11.5194 14.5956 11.0592C14.3609 10.599 14.0113 10.2073 13.5806 9.92184C13.15 9.63643 12.653 9.46706 12.1377 9.43014C11.6224 9.39321 11.1063 9.48998 10.6394 9.71107C11.3244 10.6271 11.6937 11.7407 11.6917 12.8846L11.6923 12.8865Z" fill="#FF8169" />
</svg>
